<svg xmlns="http://www.w3.org/2000/svg" xmlns:xlink="http://www.w3.org/1999/xlink" version="1.1" data-diagram-type="DESCRIPTION" style="width:583px;height:690px;background:#F8F4EA;" width="583px" height="690px" viewBox="0 0 583 690" zoomAndPan="magnify" preserveAspectRatio="none" contentStyleType="text/css"><?plantuml 1.2026.8?><defs/><g font-family="sans-serif" lengthAdjust="spacing"><rect x="0" y="0" width="583" height="690" fill="#F8F4EA" style="stroke:none;"/><g class="title" data-source-line="1"><text x="116.288" y="23.07" fill="#26352F" font-size="14" textLength="343.424" font-weight="700" font-family="'Times New Roman'">ENLYCE WEB — Casos de uso de la experiencia pública</text></g><!--cluster WEB PÚBLICA ENLYCE--><g class="cluster" data-qualified-name="WEB P.BLICA ENLYCE" id="ent0003" data-source-line="38"><rect x="73" y="134.599" width="496" height="439" fill="#F8F4EA" style="stroke:#B08A4B;stroke-width:1;" rx="2.5" ry="2.5"/><text x="240.486" y="149.669" fill="#26352F" font-size="14" textLength="161.027" font-weight="700" font-family="'Times New Roman'">WEB PÚBLICA ENLYCE</text></g><!--cluster EXPLORAR INMUEBLES--><g class="cluster" data-qualified-name="WEB P.BLICA ENLYCE.EXPLORAR INMUEBLES" id="ent0004" data-source-line="39"><rect x="97" y="177.599" width="206" height="372" fill="#E4ECE6" style="stroke:#B08A4B;stroke-width:1;" rx="2.5" ry="2.5"/><text x="116.96" y="192.669" fill="#26352F" font-size="14" textLength="166.079" font-weight="700" font-family="'Times New Roman'">EXPLORAR INMUEBLES</text></g><!--cluster CONTACTAR--><g class="cluster" data-qualified-name="WEB P.BLICA ENLYCE.CONTACTAR" id="ent0010" data-source-line="48"><rect x="327" y="263.599" width="218" height="286" fill="#F1E5E7" style="stroke:#B08A4B;stroke-width:1;" rx="2.5" ry="2.5"/><text x="390.886" y="278.669" fill="#26352F" font-size="14" textLength="90.228" font-weight="700" font-family="'Times New Roman'">CONTACTAR</text></g><!--entity catalog--><g class="entity" data-qualified-name="WEB P.BLICA ENLYCE.EXPLORAR INMUEBLES.catalog" id="ent0005" data-source-line="41"><ellipse cx="199.795" cy="508.358" rx="69.295" ry="16.259" fill="#FCFAF4" style="stroke:#66796E;stroke-width:0.5;"/><text x="147.114" y="512.907" fill="#26352F" font-size="14" textLength="105.362" font-family="'Times New Roman'">Consultar catálogo</text></g><!--entity filters--><g class="entity" data-qualified-name="WEB P.BLICA ENLYCE.EXPLORAR INMUEBLES.filters" id="ent0006" data-source-line="42"><ellipse cx="200.025" cy="235.804" rx="64.025" ry="15.205" fill="#FCFAF4" style="stroke:#66796E;stroke-width:0.5;"/><text x="154.153" y="240.353" fill="#26352F" font-size="14" textLength="91.745" font-family="'Times New Roman'">Filtrar y ordenar</text></g><!--entity detail--><g class="entity" data-qualified-name="WEB P.BLICA ENLYCE.EXPLORAR INMUEBLES.detail" id="ent0007" data-source-line="43"><ellipse cx="199.885" cy="303.776" rx="78.885" ry="18.177" fill="#FCFAF4" style="stroke:#66796E;stroke-width:0.5;"/><text x="135.552" y="308.325" fill="#26352F" font-size="14" textLength="128.666" font-family="'Times New Roman'">Ver ficha del inmueble</text></g><!--entity favorites--><g class="entity" data-qualified-name="WEB P.BLICA ENLYCE.EXPLORAR INMUEBLES.favorites" id="ent0008" data-source-line="44"><ellipse cx="199.846" cy="372.368" rx="66.846" ry="15.769" fill="#FCFAF4" style="stroke:#66796E;stroke-width:0.5;"/><text x="150.283" y="376.917" fill="#26352F" font-size="14" textLength="99.128" font-family="'Times New Roman'">Guardar favoritos</text></g><!--entity zones--><g class="entity" data-qualified-name="WEB P.BLICA ENLYCE.EXPLORAR INMUEBLES.zones" id="ent0009" data-source-line="45"><ellipse cx="199.755" cy="440.45" rx="69.755" ry="16.351" fill="#FCFAF4" style="stroke:#66796E;stroke-width:0.5;"/><text x="146.497" y="444.999" fill="#26352F" font-size="14" textLength="106.518" font-family="'Times New Roman'">Explorar por zonas</text></g><!--entity contact--><g class="entity" data-qualified-name="WEB P.BLICA ENLYCE.CONTACTAR.contact" id="ent0011" data-source-line="50"><ellipse cx="435.81" cy="500.668" rx="84.81" ry="25.069" fill="#FCFAF4" style="stroke:#66796E;stroke-width:0.5;"/><text x="376.133" y="498.171" fill="#26352F" font-size="14" textLength="119.355" font-family="'Times New Roman'">Solicitar información</text><text x="384.1" y="514.269" fill="#26352F" font-size="14" textLength="103.421" font-family="'Times New Roman'">sobre un inmueble</text></g><!--entity ownerContact--><g class="entity" data-qualified-name="WEB P.BLICA ENLYCE.CONTACTAR.ownerContact" id="ent0012" data-source-line="51"><ellipse cx="435.795" cy="332.508" rx="69.295" ry="25.409" fill="#FCFAF4" style="stroke:#66796E;stroke-width:0.5;"/><text x="388.169" y="329.518" fill="#26352F" font-size="14" textLength="95.252" font-family="'Times New Roman'">Solicitar servicio</text><text x="391.289" y="345.616" fill="#26352F" font-size="14" textLength="89.011" font-family="'Times New Roman'">para propietario</text></g><!--entity privacy--><g class="entity" data-qualified-name="WEB P.BLICA ENLYCE.CONTACTAR.privacy" id="ent0013" data-source-line="52"><ellipse cx="436.097" cy="416.751" rx="67.097" ry="23.652" fill="#FCFAF4" style="stroke:#66796E;stroke-width:0.5;"/><text x="386.133" y="416.413" fill="#26352F" font-size="14" textLength="99.928" font-family="'Times New Roman'">Consultar política</text><text x="412.964" y="432.512" fill="#26352F" font-size="14" textLength="46.266" font-family="'Times New Roman'">de datos</text></g><!--entity visitor--><g class="entity" data-qualified-name="visitor" id="ent0001" data-source-line="35"><ellipse cx="31.272" cy="377.099" rx="8" ry="8" fill="#F8F4EA" style="stroke:#742A3A;stroke-width:0.5;"/><path d="M31.272,385.099 L31.272,412.099 M18.272,393.099 L44.272,393.099 M31.272,412.099 L18.272,427.099 M31.272,412.099 L44.272,427.099" style="stroke:#742A3A;stroke-width:0.5;" fill="none"/><text x="6" y="441.669" fill="#26352F" font-size="14" textLength="50.545" font-family="'Times New Roman'">Visitante</text></g><!--entity owner--><g class="entity" data-qualified-name="owner" id="ent0002" data-source-line="36"><ellipse cx="200.104" cy="51.099" rx="8" ry="8" fill="#F8F4EA" style="stroke:#742A3A;stroke-width:0.5;"/><path d="M200.104,59.099 L200.104,86.099 M187.104,67.099 L213.104,67.099 M200.104,86.099 L187.104,101.099 M200.104,86.099 L213.104,101.099" style="stroke:#742A3A;stroke-width:0.5;" fill="none"/><text x="169" y="115.669" fill="#26352F" font-size="14" textLength="62.207" font-family="'Times New Roman'">Propietario</text></g><!--link visitor to catalog--><g class="link" data-entity-1="ent0001" data-entity-2="ent0005" id="lnk14" data-source-line="57" data-link-type="dependency"><path d="M23,444.869 C23,473.809 23,508.599 23,508.599 C23,508.599 75.77,508.599 125.3,508.599" style="stroke:#6B766F;stroke-width:1;" fill="none" id="visitor-to-catalog"/><polygon points="130.3,508.599,121.3,504.599,125.3,508.599,121.3,512.599,130.3,508.599" fill="#6B766F" style="stroke:#6B766F;stroke-width:1;stroke-linejoin:miter;stroke-miterlimit:10;"/></g><!--link visitor to filters--><g class="link" data-entity-1="ent0001" data-entity-2="ent0006" id="lnk15" data-source-line="58" data-link-type="dependency"><path d="M40,368.219 C40,317.809 40,235.599 40,235.599 C40,235.599 86.33,235.599 130.84,235.599" style="stroke:#6B766F;stroke-width:1;" fill="none" id="visitor-to-filters"/><polygon points="135.84,235.599,126.84,231.599,130.84,235.599,126.84,239.599,135.84,235.599" fill="#6B766F" style="stroke:#6B766F;stroke-width:1;stroke-linejoin:miter;stroke-miterlimit:10;"/></g><!--link visitor to detail--><g class="link" data-entity-1="ent0001" data-entity-2="ent0007" id="lnk16" data-source-line="59" data-link-type="dependency"><path d="M57.32,375.269 C85.3,375.269 126,375.269 126,375.269 C126,375.269 126,332.959 126,315.209" style="stroke:#6B766F;stroke-width:1;" fill="none" id="visitor-to-detail"/><polygon points="126,310.209,122,319.209,126,315.209,130,319.209,126,310.209" fill="#6B766F" style="stroke:#6B766F;stroke-width:1;stroke-linejoin:miter;stroke-miterlimit:10;"/></g><!--link visitor to favorites--><g class="link" data-entity-1="ent0001" data-entity-2="ent0008" id="lnk17" data-source-line="60" data-link-type="dependency"><path d="M57.09,381.929 C80.48,381.929 110.83,381.929 140.52,381.929" style="stroke:#6B766F;stroke-width:1;" fill="none" id="visitor-to-favorites"/><polygon points="145.52,381.929,136.52,377.929,140.52,381.929,136.52,385.929,145.52,381.929" fill="#6B766F" style="stroke:#6B766F;stroke-width:1;stroke-linejoin:miter;stroke-miterlimit:10;"/></g><!--link visitor to zones--><g class="link" data-entity-1="ent0001" data-entity-2="ent0009" id="lnk18" data-source-line="61" data-link-type="dependency"><path d="M57.09,434.349 C77.81,434.349 102.91,434.349 130.16,434.349" style="stroke:#6B766F;stroke-width:1;" fill="none" id="visitor-to-zones"/><polygon points="135.16,434.349,126.16,430.349,130.16,434.349,126.16,438.349,135.16,434.349" fill="#6B766F" style="stroke:#6B766F;stroke-width:1;stroke-linejoin:miter;stroke-miterlimit:10;"/></g><!--link visitor to contact--><g class="link" data-entity-1="ent0001" data-entity-2="ent0011" id="lnk19" data-source-line="62" data-link-type="dependency"><path d="M40,444.769 C40,464.229 40,483.849 40,483.849 C40,483.849 256.01,483.849 367.81,483.849" style="stroke:#6B766F;stroke-width:1;" fill="none" id="visitor-to-contact"/><polygon points="372.81,483.849,363.81,479.849,367.81,483.849,363.81,487.849,372.81,483.849" fill="#6B766F" style="stroke:#6B766F;stroke-width:1;stroke-linejoin:miter;stroke-miterlimit:10;"/></g><!--link visitor to privacy--><g class="link" data-entity-1="ent0001" data-entity-2="ent0013" id="lnk20" data-source-line="63" data-link-type="dependency"><path d="M57.11,413.769 C118.94,413.769 272.96,413.769 364.13,413.769" style="stroke:#6B766F;stroke-width:1;" fill="none" id="visitor-to-privacy"/><polygon points="369.13,413.769,360.13,409.769,364.13,413.769,360.13,417.769,369.13,413.769" fill="#6B766F" style="stroke:#6B766F;stroke-width:1;stroke-linejoin:miter;stroke-miterlimit:10;"/></g><!--link owner to ownerContact--><g class="link" data-entity-1="ent0002" data-entity-2="ent0012" id="lnk21" data-source-line="64" data-link-type="dependency"><path d="M231.34,67.929 C295.54,67.929 436,67.929 436,67.929 C436,67.929 436,235.139 436,301.739" style="stroke:#6B766F;stroke-width:1;" fill="none" id="owner-to-ownerContact"/><polygon points="436,306.739,440,297.739,436,301.739,432,297.739,436,306.739" fill="#6B766F" style="stroke:#6B766F;stroke-width:1;stroke-linejoin:miter;stroke-miterlimit:10;"/></g><!--link owner to privacy--><g class="link" data-entity-1="ent0002" data-entity-2="ent0013" id="lnk22" data-source-line="65" data-link-type="dependency"><path d="M231.12,93.269 C265.18,93.269 315,93.269 315,93.269 C315,93.269 315,403.429 315,403.429 C315,403.429 343.65,403.429 375.46,403.429" style="stroke:#6B766F;stroke-width:1;" fill="none" id="owner-to-privacy"/><polygon points="380.46,403.429,371.46,399.429,375.46,403.429,371.46,407.429,380.46,403.429" fill="#6B766F" style="stroke:#6B766F;stroke-width:1;stroke-linejoin:miter;stroke-miterlimit:10;"/></g><!--link visitor to owner--><!--link catalog to contact--><g class="legend" data-source-line="70"><rect x="86.101" y="593.599" width="403.798" height="78.395" fill="#FFF8DF" style="stroke:#B08A4B;stroke-width:1;" rx="7.5" ry="7.5"/><text x="94.601" y="613.669" fill="#4D4538" font-size="14" textLength="136.459" font-weight="700" font-family="'Times New Roman'">Cómo leer el diagrama</text><text x="94.601" y="629.768" fill="#4D4538" font-size="14" textLength="270.997" font-family="'Times New Roman'">El visitante explora inmuebles sin iniciar sesión.</text><text x="94.601" y="645.866" fill="#4D4538" font-size="14" textLength="331.201" font-family="'Times New Roman'">Favoritos se guardan en el navegador; no crean una cuenta.</text><text x="94.601" y="661.965" fill="#4D4538" font-size="14" textLength="386.798" font-family="'Times New Roman'">Enviar una solicitud exige aceptar la política de tratamiento de datos.</text><line x1="91.101" y1="600.599" x2="484.899" y2="600.599" style="stroke:#4D4538;stroke-width:1;"/><line x1="91.101" y1="616.697" x2="484.899" y2="616.697" style="stroke:#4D4538;stroke-width:1;"/><line x1="91.101" y1="632.796" x2="484.899" y2="632.796" style="stroke:#4D4538;stroke-width:1;"/><line x1="91.101" y1="648.895" x2="484.899" y2="648.895" style="stroke:#4D4538;stroke-width:1;"/><line x1="91.101" y1="664.993" x2="484.899" y2="664.993" style="stroke:#4D4538;stroke-width:1;"/><line x1="91.101" y1="600.599" x2="91.101" y2="664.993" style="stroke:#4D4538;stroke-width:1;"/><line x1="484.899" y1="600.599" x2="484.899" y2="664.993" style="stroke:#4D4538;stroke-width:1;"/></g><?plantuml-src fLNDRjD04BxdAKRkkGZQD2r283ckZIgLKBNbJvJ3n9uugwvthTrrIlcHU0XEt7W0JhrnpPlm9CpQJkAqXGfnYEATcVrsvljcTfrmaY0U7Rw9OdWL3-7NbwyGeTKMCeBAQlyd4UXzIKQGIWL2EVyvbYB5dgI90wV1Y7pg81E6KYUqwjbpeKeqMC0Oq_FSw4fbaPRQm4Qob_JZi1DXfvZf2w5ocA2qrF58eSXTbWJQkAdkE4e6nPnEt2Mdxiz4bSlkpemcM4cNQEL6M104fw8W2oEwW6DTe0fkZsrJt1fixsmbdP3G67tHEWV3tS6WwyJKiVrZ3s2eJKQcZTljRuNReRV-WG60cqT-xk1MbbAqT1DvCDXzE8XlHOwICEdVYRnax2RsyFvUs1_-HzQjD7z1_lj-IJcfx9yIIvAz_MGTkB_VtzdUO-1UeyvBOGMNx0ZGmimlj6bTHqQNWXmQeRrJNoWolTwAei3FnD7ys_3m80hREGdg_1Qb1l7heyFdn-4n78oUlOY7X_5901jnFuxYGHq8F28vkIcPTWbBSOD8AylTXmPITFFlKkSwy7dm2dbnFJmHqXaElWHFZa9J1q_OIiPU3tx91qv4EaNkSGb25HMD9TKxCgvOoEiRdbPeCaQVu4mRviWswCsARk37xqjcc-DBvl63LjZ4yrSR-xdN_9PCHSz7fs5q6XupGSc3U2VUlPEW4yqtZV042JNHfi1KpA_KcR9wRFX-KkjrfTm3hEkVGIoP6N_gixhVe5of7opbZsu7MKbLQZd_uVW2F5DyEMQuOAeqOeRfPQTsxi2stM1pyybIrQvj8LxNrigp5hPKeMjjk5uxeas-QrlaLLTNMzRgN9aNWQlTRwSYuqPxnrUqscodewtYkdDnSg-TuR5sJXTCmwV74Csl2it3pUTmAsO2SnvsX4_U2x5iPh8UK6gQQYch1Ikyo2nQBP_ryjzhToQBHcK7v7NtAY3bpr0uevnV5lC8b8RK47igXP1Mn6ak068ryx3UOPiUgJ9EGN2pOagb5vlVlgNU_Yta-NDOy4lewgUnLj_3SSbDuRy1?></g></svg>